<?xml version="1.0" encoding="UTF-8" standalone="no"?>
<!-- Created with Inkscape (http://www.inkscape.org/) -->

<svg
   width="16"
   height="16"
   viewBox="0 0 4.2333332 4.2333335"
   version="1.1"
   id="svg5"
   inkscape:version="1.1.1 (3bf5ae0d25, 2021-09-20)"
   sodipodi:docname="electricMotor.svg"
   xmlns:inkscape="http://www.inkscape.org/namespaces/inkscape"
   xmlns:sodipodi="http://sodipodi.sourceforge.net/DTD/sodipodi-0.dtd"
   xmlns="http://www.w3.org/2000/svg"
   xmlns:svg="http://www.w3.org/2000/svg">
  <sodipodi:namedview
     id="namedview7"
     pagecolor="#ffffff"
     bordercolor="#666666"
     borderopacity="1.0"
     inkscape:pageshadow="2"
     inkscape:pageopacity="0.0"
     inkscape:pagecheckerboard="0"
     inkscape:document-units="mm"
     showgrid="false"
     units="px"
     width="16px"
     inkscape:zoom="8.3049731"
     inkscape:cx="16.195116"
     inkscape:cy="-0.060204891"
     inkscape:window-width="1920"
     inkscape:window-height="1009"
     inkscape:window-x="-8"
     inkscape:window-y="-8"
     inkscape:window-maximized="1"
     inkscape:current-layer="layer1" />
  <defs
     id="defs2">
    <clipPath
       id="clip0">
      <rect
         x="525"
         y="446"
         width="242"
         height="190"
         id="rect824" />
    </clipPath>
  </defs>
  <g
     inkscape:label="Capa 1"
     inkscape:groupmode="layer"
     id="layer1">
    <g
       clip-path="url(#clip0)"
       transform="matrix(0.01538677,0,0,0.01708275,-7.8744605,-7.1623698)"
       id="g843">
      <path
         d="m 744.466,463.053 h -22.044 c -4.408,0 -8.327,3.41 -9.308,7.308 H 692.54 l -0.002,-15.104 c 0,-5.359 -4.408,-9.257 -9.308,-9.257 l -70.542,0.002 c -5.389,0 -9.308,4.383 -9.308,9.257 v 15.102 h -21.555 c -8.328,0 -14.697,6.82 -14.697,14.616 v 13.153 h -4.899 c -4.898,0 -8.817,3.898 -8.817,8.769 l 10e-4,19.486 h -14.697 c -7.349,0 -13.716,6.333 -13.716,13.64 0,7.308 6.368,13.641 13.716,13.641 h 14.697 v 19 c 0,4.871 3.92,8.769 8.818,8.769 h 4.898 v 13.155 c 0,8.281 6.859,14.616 14.697,14.616 h 21.555 v 6.333 h -9.796 c -5.389,0 -10.288,4.383 -10.288,10.23 0,5.359 4.408,10.231 10.288,10.231 h 120.019 c 5.389,0 10.288,-4.384 10.288,-10.231 0,-5.359 -4.408,-10.23 -10.288,-10.23 h -9.796 l -0.002,-6.333 h 8.818 c 0.979,4.383 4.408,7.308 9.308,7.308 h 22.043 c 12.738,0 23.025,-10.231 23.025,-22.898 V 485.95 c 0,-12.667 -10.287,-22.898 -22.534,-22.898 z M 610.73,455.257 c 0,-0.974 0.98,-1.949 1.959,-1.949 h 71.032 c 0.979,0 1.96,0.973 1.96,1.949 v 15.102 l -74.951,0.002 z m -72.012,91.102 c -3.429,0 -6.368,-2.923 -6.368,-6.333 0,-3.41 2.939,-6.333 6.368,-6.333 h 14.697 v 12.667 z m 23.515,27.769 c -0.979,0 -1.47,-0.488 -1.47,-1.461 v -65.282 c 0,-0.488 0.491,-1.461 1.47,-1.461 h 4.898 v 68.205 z m 12.247,20.461 V 485.461 c 0,-3.897 3.429,-7.308 7.348,-7.308 H 713.115 V 602.384 H 581.828 c -4.41,-0.488 -7.348,-3.411 -7.348,-7.796 z m 142.554,31.179 c 0,1.462 -1.47,2.923 -2.939,2.923 l -120.02,0.002 c -1.469,0 -2.939,-1.462 -2.939,-2.923 0,-1.461 1.47,-2.922 2.939,-2.922 h 120.02 c 1.469,-0.002 2.939,1.459 2.939,2.92 z m -20.084,-10.23 h -86.219 v -6.333 h 86.219 z m 62.704,-21.436 c 0,8.769 -6.859,15.589 -15.676,15.589 h -22.044 c -0.979,0 -1.96,-0.973 -1.96,-1.949 V 472.794 c 0,-0.974 0.979,-1.949 1.96,-1.949 h 22.044 c 8.817,0 15.676,6.821 15.676,15.59 z"
         fill="#009eb6"
         fill-rule="evenodd"
         id="path829" />
      <path
         d="m 600.901,498 h 90.198 c 1.951,0 3.901,-1.4 3.901,-3.266 0,-1.867 -1.462,-3.734 -3.901,-3.734 h -90.198 c -1.951,0 -3.901,1.4 -3.901,3.734 0.488,1.399 1.95,3.266 3.901,3.266 z"
         fill="#009eb6"
         fill-rule="evenodd"
         id="path831" />
      <path
         d="m 600.901,516 h 90.198 c 1.951,0 3.901,-1.5 3.901,-4 0,-2 -1.462,-4 -3.901,-4 l -90.198,0.002 c -1.951,0 -3.901,1.499 -3.901,4 0.488,2.498 1.95,3.998 3.901,3.998 z"
         fill="#009eb6"
         fill-rule="evenodd"
         id="path833" />
      <path
         d="m 600.901,535 h 90.198 c 1.951,0 3.901,-1.5 3.901,-4 0,-2 -1.462,-4 -3.901,-4 h -90.198 c -1.951,0 -3.901,1.5 -3.901,4 0.488,2 1.95,4 3.901,4 z"
         fill="#009eb6"
         fill-rule="evenodd"
         id="path835" />
      <path
         d="m 600.901,553 h 90.198 c 1.951,0 3.901,-1.5 3.901,-4 0,-2 -1.462,-4 -3.901,-4 l -90.198,0.002 c -1.951,0 -3.901,1.499 -3.901,4 0.488,2.499 1.95,3.998 3.901,3.998 z"
         fill="#009eb6"
         fill-rule="evenodd"
         id="path837" />
      <path
         d="m 600.901,571 h 90.198 c 1.951,0 3.901,-1.312 3.901,-3.5 0,-1.75 -1.462,-3.5 -3.901,-3.5 h -90.198 c -1.951,0 -3.901,1.312 -3.901,3.5 0.488,2.186 1.95,3.5 3.901,3.5 z"
         fill="#009eb6"
         fill-rule="evenodd"
         id="path839" />
      <path
         d="m 695,586 c 0,-2 -1.462,-4 -3.901,-4 h -90.198 c -1.951,0 -3.901,1.5 -3.901,4 0,2 1.462,4 3.901,4 h 90.198 c 2.439,0 3.901,-2 3.901,-4 z"
         fill="#009eb6"
         fill-rule="evenodd"
         id="path841" />
    </g>
  </g>
</svg>
