<?xml version="1.0" encoding="UTF-8" standalone="no"?>
<svg
   width="16"
   height="16"
   overflow="hidden"
   version="1.1"
   id="svg11"
   sodipodi:docname="Imagen1.svg"
   inkscape:version="1.1.1 (3bf5ae0d25, 2021-09-20)"
   xmlns:inkscape="http://www.inkscape.org/namespaces/inkscape"
   xmlns:sodipodi="http://sodipodi.sourceforge.net/DTD/sodipodi-0.dtd"
   xmlns="http://www.w3.org/2000/svg"
   xmlns:svg="http://www.w3.org/2000/svg">
  <sodipodi:namedview
     id="namedview13"
     pagecolor="#ffffff"
     bordercolor="#666666"
     borderopacity="1.0"
     inkscape:pageshadow="2"
     inkscape:pageopacity="0.0"
     inkscape:pagecheckerboard="0"
     showgrid="false"
     inkscape:zoom="34.71875"
     inkscape:cx="4.8244824"
     inkscape:cy="7.7047705"
     inkscape:window-width="1920"
     inkscape:window-height="1009"
     inkscape:window-x="-8"
     inkscape:window-y="-8"
     inkscape:window-maximized="1"
     inkscape:current-layer="svg11" />
  <defs
     id="defs5">
    <clipPath
       id="clip0">
      <rect
         x="736"
         y="1367"
         width="626"
         height="773"
         id="rect2" />
    </clipPath>
  </defs>
  <g
     clip-path="url(#clip0)"
     transform="matrix(0.02196177,0,0,0.01970821,-15.253768,-26.682732)"
     id="g9"
     inkscape:export-filename="C:\Users\jdelolmo\Downloads\g9.png"
     inkscape:export-xdpi="7.6291227"
     inkscape:export-ydpi="7.6291227">
    <path
       d="m 1362,1758.55 c -0.03,-57.46 -16.97,-113.65 -48.71,-161.55 -31.73,-47.9 -76.86,-85.4 -129.76,-107.83 V 1367 h -24.77 v 113.08 c -57.46,-18.51 -119.25,-18.75 -176.864,-0.69 -57.603,18.06 -108.198,53.53 -144.819,101.54 -36.621,48 -57.469,106.18 -59.669,166.52 -2.201,60.34 14.344,119.89 47.37,170.43 H 736 v 24.78 h 106.533 c 37.058,45.78 87.085,79.28 143.521,96.1 56.436,16.81 116.636,16.18 172.706,-1.85 V 2140 h 24.78 l -0.01,-112.26 c 52.88,-22.4 98,-59.87 129.73,-107.75 31.74,-47.87 48.69,-104.02 48.74,-161.46 z m -292.18,267.56 c -36.38,0.02 -72.369,-7.4 -105.776,-21.81 -33.4,-14.39 -63.505,-35.48 -88.467,-61.95 h 87.626 v -389.48 h -24.777 v 364.69 h -83.495 c -34.07,-46 -52.48,-101.73 -52.509,-158.99 -0.034,-57.26 18.308,-113.01 52.324,-159.06 34.017,-46.05 81.918,-79.96 136.644,-96.74 54.73,-16.78 113.4,-15.55 167.38,3.51 v 102.27 h -137.75 v -55.68 h -24.78 v 389.48 h 24.78 v -75.58 h 137.75 v 143.98 c -28.55,10.16 -58.64,15.36 -88.94,15.36 z m 87.79,-275 1.16,-0.58 v 91.45 h -137.76 v -90.87 h 37.5 v 57.33 z m -74.32,14.37 -0.01,-53.27 24.78,14.29 21.47,12.38 -21.47,12.39 z m 100.25,235.1 v -265.99 h -11.64 l -14.29,-8.26 -99.1,-57.25 v 57.25 h -37.5 v -93.01 h 162.53 v -116.88 c 61.59,28.95 109.82,80.29 134.88,143.56 25.06,63.28 25.06,133.73 0,197.01 -25.06,63.28 -73.29,114.62 -134.88,143.57 z"
       fill="#009eb6"
       fill-rule="evenodd"
       id="path7" />
  </g>
</svg>
